<?xml version="1.0" standalone="no"?>
<!DOCTYPE svg PUBLIC "-//W3C//DTD SVG 20010904//EN"
 "http://www.w3.org/TR/2001/REC-SVG-20010904/DTD/svg10.dtd">
<svg version="1.0" xmlns="http://www.w3.org/2000/svg"
 width="512.000000pt" height="512.000000pt" viewBox="0 0 512.000000 512.000000"
 preserveAspectRatio="xMidYMid meet">

<g transform="translate(0.000000,512.000000) scale(0.100000,-0.100000)"
fill="#000000" stroke="none">
<path d="M3715 4330 c-233 -13 -579 -37 -765 -55 -85 -8 -279 -19 -430 -25
-320 -12 -496 -29 -745 -71 -99 -17 -209 -35 -245 -40 -360 -51 -694 -112
-925 -170 -143 -36 -507 -157 -516 -171 -18 -28 73 -241 145 -343 55 -76 157
-172 230 -216 34 -21 54 -39 51 -47 -3 -8 -10 -57 -16 -110 -31 -272 51 -569
213 -779 l42 -55 -40 -34 c-44 -38 -43 -40 16 -19 23 8 48 15 54 15 6 -1 32
-21 59 -45 l47 -44 -70 -92 c-39 -50 -68 -94 -65 -97 2 -3 48 28 102 68 l97
73 30 -18 c74 -44 177 -96 251 -125 106 -42 317 -95 435 -110 154 -19 142 -10
108 -80 -56 -119 -72 -254 -37 -324 24 -50 63 -71 129 -71 l58 1 11 -112 c34
-336 161 -536 386 -607 64 -20 89 -22 315 -22 260 1 319 9 414 57 57 28 136
91 166 132 l25 34 60 -48 c331 -263 761 -394 1098 -335 115 20 233 64 326 122
95 59 221 182 221 216 0 41 -113 198 -204 284 -94 89 -215 157 -336 188 -89
23 -287 30 -407 15 -125 -15 -362 -75 -528 -134 -71 -25 -129 -46 -130 -46 0
0 0 66 0 148 -1 123 -4 160 -24 229 -38 136 -111 265 -217 381 -31 35 -55 64
-53 65 2 2 51 18 109 36 58 18 155 56 216 83 65 29 118 46 128 42 11 -4 15 -2
11 8 -4 11 15 28 63 56 385 229 595 628 552 1053 -12 121 -36 225 -73 317
l-26 62 72 36 c183 92 333 231 405 375 47 93 75 205 70 283 -3 51 -3 51 -43
58 -64 12 -634 17 -820 8z m753 -66 c39 -6 42 -8 42 -38 0 -94 -68 -246 -151
-340 -75 -83 -159 -144 -294 -211 -140 -71 -136 -61 -82 -200 55 -140 70 -228
70 -395 0 -124 -4 -160 -27 -245 -67 -256 -225 -462 -481 -627 -49 -32 -94
-58 -98 -58 -5 0 -40 22 -77 50 -79 58 -138 87 -200 95 l-45 6 60 -58 c39 -38
84 -68 127 -88 37 -16 68 -33 68 -36 0 -11 -190 -86 -310 -122 -280 -85 -560
-126 -915 -134 -361 -8 -598 21 -841 102 -96 32 -256 106 -299 138 -19 14 -19
15 5 60 14 25 21 49 18 53 -4 3 -28 -5 -54 -20 -25 -14 -52 -26 -58 -26 -7 0
-26 15 -44 33 l-32 32 51 24 c27 13 69 43 92 65 40 39 41 41 18 44 -36 5 -105
-17 -157 -50 -26 -16 -53 -27 -60 -24 -25 10 -107 130 -151 223 -69 146 -95
259 -97 433 0 80 3 177 7 215 l8 70 -63 34 c-40 22 -96 67 -154 125 -80 81
-98 106 -148 207 -32 63 -58 130 -59 149 l-2 33 145 48 c188 62 372 110 590
154 219 45 504 91 635 104 55 5 144 17 198 27 53 9 99 15 101 13 2 -2 -1 -59
-7 -127 -12 -136 0 -273 26 -299 12 -13 16 -13 30 1 33 33 77 197 112 419 5
33 9 37 37 37 29 0 30 -1 24 -37 -14 -92 -18 -371 -7 -437 17 -96 35 -128 69
-124 62 7 103 150 168 591 6 36 7 37 45 37 l40 0 -8 -67 c-4 -38 -8 -126 -8
-198 1 -135 14 -190 45 -190 37 0 93 174 121 376 l13 87 145 6 c80 4 243 16
361 26 118 11 296 24 395 30 99 6 205 12 235 14 78 5 776 -4 828 -10z m-1318
-2557 c103 -155 148 -322 137 -510 -10 -174 -62 -301 -159 -393 -107 -101
-196 -124 -479 -124 -107 0 -222 5 -255 11 -229 42 -359 235 -404 599 l-12 96
35 64 c38 70 61 133 72 195 10 54 -5 36 -39 -47 -66 -159 -159 -235 -217 -177
-20 20 -21 29 -16 128 3 58 13 137 24 175 l18 69 195 -2 c281 -3 597 28 840
83 l105 24 48 -52 c26 -28 75 -91 107 -139z m1210 -522 c153 -36 263 -97 368
-203 62 -62 142 -173 142 -197 0 -19 -120 -129 -189 -174 -71 -46 -187 -93
-276 -112 -89 -19 -322 -17 -428 4 -234 47 -506 174 -695 325 l-23 18 25 49
c13 28 32 76 41 108 9 31 18 57 20 57 2 0 70 18 152 39 172 46 366 88 473 101
101 12 310 4 390 -15z"/>
<path d="M2190 2852 c0 -5 13 -18 28 -29 84 -62 236 -113 337 -113 71 0 177
27 155 40 -26 14 -115 29 -231 40 -124 12 -182 24 -246 51 -24 10 -43 15 -43
11z"/>
<path d="M1420 2762 c-30 -19 -96 -50 -147 -69 -127 -45 -198 -82 -185 -95 6
-6 39 -9 79 -6 77 4 137 29 213 89 46 37 107 106 99 113 -2 2 -29 -13 -59 -32z"/>
<path d="M3153 2463 c-18 -2 -33 -8 -33 -13 0 -23 111 -62 202 -70 116 -12
178 -12 178 -2 0 4 -48 25 -107 45 -107 37 -178 49 -240 40z"/>
<path d="M1845 2271 c-73 -18 -155 -93 -155 -143 0 -16 5 -14 42 12 58 42 137
64 213 58 53 -5 117 -26 255 -85 34 -15 -15 29 -86 76 -99 67 -202 98 -269 82z"/>
<path d="M2349 1643 c-29 -141 -7 -260 60 -316 55 -46 122 -49 180 -8 56 40
87 154 76 275 -11 117 -18 117 -31 2 -19 -165 -45 -219 -112 -232 -26 -5 -36
-1 -61 23 -35 35 -54 95 -71 221 -7 51 -16 92 -21 92 -4 0 -13 -26 -20 -57z"/>
</g>
</svg>
